<svg xmlns="http://www.w3.org/2000/svg" id="Capa_1" data-name="Capa 1" viewBox="0 0 273.14 65.75"><defs><style>.cls-1{fill:#1d1d1b;stroke:#1d1d1b;stroke-miterlimit:10;stroke-width:.26px}</style></defs><path d="M29 25.31c-2.31-1.67-5.82-2.56-11.58-2.56H.13v41.94h7.49v-15.8h8.14c5 0 9.38-.6 12.47-2.32 3.68-2.08 5.35-6.3 5.35-11 0-4.21-1.43-8.07-4.58-10.26Zm-5.4 15.62c-1.67 1.13-4.34 1.54-8.44 1.54H7.62v-13.3h8c4.33 0 6.35.23 8 1.42a6.19 6.19 0 0 1 2.13 5.05c-.02 2.36-.61 4.16-2.15 5.29Zm26.07-6.66c-9.15 0-14.91 5.77-14.91 15.57S40 65.52 49.26 65.52c8.67 0 14.49-5.46 14.49-15.33 0-10.03-5.29-15.92-14.08-15.92Zm-.36 25.43c-4.33 0-7.42-3.33-7.42-10 0-6.18 3.21-9.56 7.6-9.56s7.25 3.32 7.25 9.92-3.09 9.64-7.43 9.64Zm44.91-24.59h-8.43L74.56 47.7V22.75h-6.95v41.94h6.95v-8.91l4.34-4.58 8.25 13.49h8.08l-11.4-18.36z" class="cls-1"/><path d="M108.83 34.27c-8.61 0-14.31 5.89-14.31 15.33 0 9.8 5.11 16 14.61 16 6.18 0 10.69-3 12.89-8.32l-6.12-2.13c-1.07 3.38-3.62 4.57-6.65 4.57-4.69 0-7.49-2.91-7.72-8h20.67c-.06-10.61-3.98-17.45-13.37-17.45Zm-7.24 12.42c.47-4.63 3.26-7 7.06-7s6.24 2.38 6.48 7ZM144.37 59c-7.25 0-11.49-6-11.49-15.37 0-8.82 4-14.27 11.49-14.27 4.46 0 7.31 2.72 8.41 7.19l7.22-2.66c-2.09-6.78-7.43-11.08-15.55-11.08-11.6 0-19.31 7.66-19.31 21.12s7.13 21.69 18.91 21.69c7.88 0 13.92-4.06 16.47-11.6l-7.08-2.55c-1.07 4.98-4.55 7.53-9.07 7.53Zm34.1-24.73c-9.15 0-14.91 5.77-14.91 15.57s5.22 15.68 14.49 15.68c8.67 0 14.49-5.46 14.49-15.33 0-10.03-5.28-15.92-14.07-15.92Zm-.36 25.43c-4.34 0-7.43-3.33-7.43-10 0-6.18 3.21-9.56 7.61-9.56s7.24 3.32 7.24 9.92-3.09 9.64-7.42 9.64Zm38.01-21.33c-1.6-2.25-4-3.86-8.43-3.86-6.83 0-12.3 5.59-12.3 15.27 0 10.28 5.05 15.5 11.88 15.5a10.17 10.17 0 0 0 8.85-4.75v4.16h6.78V22.75h-6.78Zm-7 21.09c-4.09 0-6.59-3.8-6.59-9.74 0-6.3 2.79-9.45 6.89-9.45s6.7 3.73 6.7 9.73c0 6.25-2.91 9.46-7.01 9.46Zm31.36-25.19c-8.61 0-14.32 5.89-14.32 15.33 0 9.8 5.11 16 14.62 16 6.17 0 10.69-3 12.89-8.32l-6.12-2.13c-1.07 3.38-3.63 4.57-6.66 4.57-4.69 0-7.48-2.91-7.72-8h20.67c-.06-10.61-3.98-17.45-13.36-17.45Zm-7.25 12.42c.48-4.63 3.27-7 7.07-7s6.24 2.38 6.48 7Zm39.74-26.91-1.02-2.18-11.66 5.43-11.67-5.43-1.01 2.18 9.83 4.58-9.83 4.57 1.01 2.18 11.67-5.43 11.66 5.43 1.02-2.18-9.84-4.57z" class="cls-1"/><path d="M260.26 19.51a9.69 9.69 0 1 0-9.69-9.69 9.7 9.7 0 0 0 9.69 9.69Zm0-17A7.29 7.29 0 1 1 253 9.82a7.3 7.3 0 0 1 7.26-7.29Z" class="cls-1"/><path d="M263.27 12.34a2.1 2.1 0 0 0 2.12-1.46l-1.07-.37a.93.93 0 0 1-1 .82c-.79 0-1.26-.59-1.26-1.71S262.6 8 263.3 8c.48 0 .84.22 1 .89l1.07-.36a2 2 0 0 0-2-1.54 2.4 2.4 0 0 0-2.48 2.68 2.39 2.39 0 0 0 2.38 2.67Zm-6.08-1.01a.93.93 0 0 1-1-.82l-1.07.37a2.09 2.09 0 0 0 2.12 1.46 2.39 2.39 0 0 0 2.42-2.7A2.4 2.4 0 0 0 257.19 7a2 2 0 0 0-2 1.54l1.07.36c.14-.67.51-.89 1-.89.69 0 1.23.52 1.23 1.65s-.49 1.67-1.3 1.67Z" class="cls-1"/></svg>